#N canvas 960 0 944 982 10;
#X obj 300 -489 soundfiler;
#X msg 122 -380 sr 44100;
#X msg 635 -437 stop;
#X obj 596 -373 bng 15 250 50 0 empty empty PVOC_EVENT 17 7 0 10 -262144
-1 -1;
#X obj 550 -189 f;
#X floatatom 1540 -336 5 0 0 0 - transpo-set-#1 -, f 5;
#X floatatom 1213 -268 10 0 0 0 - speed-set-#1 -, f 10;
#X floatatom 1101 -266 7 0 0 0 - location-set-#1 -, f 7;
#X text 1210 -287 hundredths;
#X text 1539 -357 in cents;
#X text 1435 -292 normal;
#X obj 1539 -264 tgl 15 0 empty empty empty 0 -6 0 8 -262144 -1 -1
0 1;
#X obj 1308 -265 bng 15 250 50 0 empty empty empty 0 -6 0 8 -262144
-1 -1;
#X msg 1391 -315 200;
#X msg 1391 -293 100;
#X msg 1391 -271 20;
#X text 1432 -316 contract;
#X text 1436 -271 expand;
#X text 1540 -374 detune;
#X text 1101 -321 location;
#X text 1098 -305 (stops;
#X text 1103 -290 motion);
#X text 1211 -303 motion in;
#X floatatom 1653 -185 5 0 0 0 - window-size-#1 -, f 5;
#X msg 1659 -307 1024;
#X msg 1659 -285 2048;
#X msg 1659 -263 4096;
#X text 1659 -362 window size \,;
#X text 1659 -347 samples;
#X text 1700 -330 <- set;
#X text 1146 -345 ------- location controls -------;
#X text 1706 -232 (check);
#X obj 1597 -335 bng 15 250 50 0 no-detune empty empty 0 -6 0 8 -262144
-1 -1;
#X msg 1659 -241 8192;
#X obj 1809 -239 loadbang;
#X obj 509 -118 / 44100;
#X obj 507 -91 * 1000;
#X obj 149 199 bng 15 250 50 0 empty empty PVOC_EVENT 17 7 0 10 -262144
-1 -1;
#X obj 291 213 hsl 128 15 0.001 10000 0 0 empty empty empty -2 -8 0
10 -262144 -1 -1 1300 1;
#X floatatom 374 256 5 0 0 0 - - -, f 5;
#X obj 257 171 loadbang;
#X msg 257 193 0.001;
#X obj 374 239 / 1000;
#X msg 318 -180 1 \$1;
#X obj 213 199 f;
#X msg 289 -180 0;
#X obj 372 -282 loadbang;
#X obj 292 -151 line~;
#X obj 174 -106 *~;
#X obj 202 -106 *~;
#X text 308 -133 fade in;
#X text 150 314 1;
#X obj 146 162 bng 20 250 50 0 empty empty play 17 7 0 10 -4034 -1
-1;
#X text 331 239 2;
#X obj 460 227 hsl 128 15 0.001 10000 0 0 empty empty empty -2 -8 0
10 -262144 -1 -1 700 1;
#X floatatom 543 270 5 0 0 0 - - -, f 5;
#X obj 470 -10 loadbang;
#X msg 470 12 0.001;
#X obj 518 249 / 1000;
#X obj 429 226 f;
#X obj 460 199 hsl 128 15 0.001 10000 0 0 empty empty dly -2 -8 0 10
-262144 -1 -1 0 1;
#X floatatom 674 149 5 0 0 0 - - -, f 5;
#X obj 671 130 / 1000;
#X obj 457 83 delay;
#N canvas 126 173 815 702 random_lfo 0;
#X obj 156 46 noise~;
#X obj 152 129 *~ 20;
#X obj 170 154 hsl 128 15 0.0001 5 0 0 empty empty random_indice -2
-8 0 10 -262144 -1 -1 0 1;
#X obj 153 102 *~;
#X obj 245 90 expr 1 -$f1;
#X floatatom 304 155 5 0 0 0 - - -, f 5;
#X obj 246 22 * 2;
#X obj 251 30 max 1;
#X obj 244 61 / 5;
#X obj 154 70 lop~ 5;
#X obj 130 131 osc~;
#X obj 141 178 *~ 1;
#X obj 106 143 vsl 15 128 0.0001 16 1 0 empty empty sin_amp 0 -9 0
10 -262144 -1 -1 0 1;
#X obj 107 108 hsl 128 15 0.0001 5 0 0 empty empty sin_freq -2 -8 0
10 -262144 -1 -1 0 1;
#X floatatom 106 281 5 0 0 0 - - -, f 5;
#X obj 141 227 *~;
#X obj 14 2 inlet;
#X obj 15 23 s enableosc;
#X obj 48 482 outlet;
#X obj 107 341 r enableosc;
#X obj 25 306 snapshot~;
#X obj 317 464 metro 1;
#X obj 316 430 tgl 15 0 empty empty empty 17 7 0 10 -262144 -1 -1 0
1;
#X obj 315 375 r pvoc_event;
#X msg 346 411 1;
#X obj 256 374 r stop;
#X msg 256 396 0;
#X msg 26 335 \$1 1;
#X obj 27 362 line;
#X obj 150 264 hsl 128 15 0 400 0 0 empty empty speed_max_range -2
-8 0 10 -262144 -1 -1 0 1;
#X obj 511 503 loadbang;
#X msg 511 525 0;
#X floatatom 187 285 5 0 0 0 - - -, f 5;
#X obj 133 461 line~;
#X msg 128 428 \$1 20;
#X obj 47 271 *~;
#X floatatom 247 110 5 0 0 0 - - -, f 5;
#X obj 151 304 hsl 128 15 -400 400 0 0 empty empty empty -2 -8 0 10
-262144 -1 -1 0 1;
#X msg 180 428 \$1 20;
#X obj 180 452 line;
#X floatatom 148 321 5 0 0 0 - - -, f 5;
#X obj 26 403 *;
#X obj 254 352 r nominal_event;
#X connect 0 0 9 0;
#X connect 1 0 15 1;
#X connect 2 0 8 0;
#X connect 2 0 9 1;
#X connect 3 0 1 0;
#X connect 4 0 6 0;
#X connect 6 0 7 0;
#X connect 7 0 5 0;
#X connect 7 0 3 1;
#X connect 8 0 4 0;
#X connect 9 0 3 0;
#X connect 10 0 11 0;
#X connect 11 0 15 0;
#X connect 12 0 11 1;
#X connect 12 0 14 0;
#X connect 13 0 10 0;
#X connect 13 0 36 0;
#X connect 15 0 35 0;
#X connect 16 0 17 0;
#X connect 19 0 41 1;
#X connect 20 0 27 0;
#X connect 22 0 21 0;
#X connect 23 0 24 0;
#X connect 24 0 22 0;
#X connect 25 0 26 0;
#X connect 26 0 22 0;
#X connect 27 0 28 0;
#X connect 28 0 41 0;
#X connect 29 0 32 0;
#X connect 29 0 34 0;
#X connect 30 0 31 0;
#X connect 31 0 29 0;
#X connect 33 0 35 1;
#X connect 34 0 33 0;
#X connect 35 0 20 0;
#X connect 37 0 40 0;
#X connect 38 0 39 0;
#X connect 39 0 37 0;
#X connect 41 0 18 0;
#X connect 41 0 38 0;
#X connect 42 0 26 0;
#X coords 0 -1 1 1 250 250 1 100 100;
#X restore 867 -178 pd random_lfo;
#X obj 591 198 bng 15 250 50 0 empty empty empty 17 7 0 10 -262144
-1 -1;
#X obj 765 142 hsl 128 15 -200 200 0 0 empty empty target_speed -2
-8 0 10 -262144 -1 -1 6400 1;
#X obj 704 37 loadbang;
#X msg 716 59 100;
#X obj 765 164 hsl 128 15 0.001 30000 0 0 empty empty empty -2 -8 0
10 -262144 -1 -1 1138 1;
#X floatatom 861 179 5 0 0 0 - - -, f 5;
#X obj 998 221 / 1000;
#X obj 1358 577 pack f f;
#X obj 1341 544 f;
#X obj 1358 619 line;
#X obj 628 164 hsl 128 15 0.001 10000 0 0 empty empty dly -2 -8 0 10
-262144 -1 -1 0 1;
#X obj 1413 398 loadbang;
#X obj 1312 481 delay;
#X msg 584 138 0.1;
#X floatatom 858 128 5 0 0 0 - - -, f 5;
#X obj 1183 -28 tgl 15 0 empty empty enable_lfo 17 7 0 10 -262144 -1
-1 0 1;
#X obj 747 115 / 1000;
#X floatatom 725 180 5 0 0 0 - - -, f 5;
#X obj 1278 485 bng 15 250 50 0 empty empty empty 17 7 0 10 -262144
-1 -1;
#X obj 1251 457 bng 15 250 50 0 empty empty empty 17 7 0 10 -262144
-1 -1;
#X obj 147 242 bng 15 250 50 0 empty empty nominal_EVENT 17 7 0 10
-262144 -1 -1;
#X msg 1270 49 0;
#X obj 1389 239 hsl 128 15 0.001 10000 0 0 empty empty empty -2 -8
0 10 -262144 -1 -1 1400 1;
#X floatatom 1485 254 5 0 0 0 - - -, f 5;
#X obj 1346 117 loadbang;
#X msg 1319 134 0.001;
#X obj 1476 320 / 1000;
#X obj 1306 283 f;
#X obj 1389 210 hsl 128 15 0.001 10000 0 0 empty empty dly -2 -8 0
10 -262144 -1 -1 900 1;
#X floatatom 1482 196 5 0 0 0 - - -, f 5;
#X obj 1519 218 / 1000;
#X obj 1306 205 delay;
#X obj 1314 260 bng 15 250 50 0 empty empty empty 17 7 0 10 -262144
-1 -1;
#X obj 634 -339 bng 15 250 50 0 empty empty nominal_event 17 7 0 10
-262144 -1 -1;
#X obj 147 294 bng 15 250 50 0 empty empty STOP 17 7 0 10 -262144 -1
-1;
#X msg 3 -536 0;
#X obj 102 -539 f;
#X floatatom 191 -551 12 0 0 0 - - -, f 12;
#X obj 121 -401 loadbang;
#X obj 660 -222 /;
#X floatatom 1420 150 5 0 0 0 - - -, f 5;
#X obj 691 -187 sel 1;
#X obj 697 -211 min 1;
#X obj 299 106 hsl 1250 15 0 1 0 0 empty empty TIMELINE -2 -8 0 10
-262144 -1 -1 79626 1;
#X obj 705 -546 *;
#X obj 706 -511 / 44.1;
#X floatatom 802 -521 12 0 0 0 - - -, f 12;
#X obj 847 1300;
#X obj 763 283 hsl 128 15 -4800 4800 0 0 empty empty target_transpo
-2 -8 0 10 -262144 -1 -1 6351 1;
#X obj 763 301 hsl 128 15 0 30000 0 0 empty empty empty -2 -8 0 10
-262144 -1 -1 1138 1;
#X obj 612 573 f;
#X obj 626 640 line;
#X floatatom 859 316 5 0 0 0 - - -, f 5;
#X obj 599 373 / 1000;
#X obj 803 534 loadbang;
#X msg 807 553 0;
#X obj 534 561 f;
#X obj 1148 304 hsl 128 15 0.001 30000 0 0 empty empty nominal_transpo_time
-2 -8 0 10 -262144 -1 -1 300 1;
#X floatatom 1244 319 5 0 0 0 - - -, f 5;
#X obj 972 379 / 1000;
#X obj 1267 592 f;
#X obj 1149 167 hsl 128 15 0.001 30000 0 0 empty empty nominal_speed_time
-2 -8 0 10 -262144 -1 -1 300 1;
#X floatatom 1280 528 5 0 0 0 - - -, f 5;
#X obj 1234 525 / 1000;
#X msg 1659 -329 512;
#X obj 1023 -503 hsl 200 15 -1 1 0 0 empty empty TIMELINE -2 -8 0 10
-262144 -1 -1 9950 1;
#X obj 1004 -456 * 1000;
#X msg 1150 -527 0;
#X obj 1213 -620 loadbang;
#X obj 1040 -482 abs;
#X obj 1068 -456 * 4800;
#X obj 1072 -436 - 2400;
#X msg 1256 635 \$1 \, 100 \$2;
#X obj 1266 617 pack f f;
#X obj 1510 571 bng 15 250 50 0 empty empty empty 17 7 0 10 -262144
-1 -1;
#X obj 526 -339 spigot;
#X obj 568 -364 tgl 15 0 empty empty empty 17 7 0 10 -262144 -1 -1
0 1;
#X msg 553 -405 0;
#X msg 589 -392 1;
#X obj 555 -457 loadbang;
#X obj 964 -259 /;
#X floatatom 889 -277 5 0 0 0 - - -, f 5;
#X obj 964 -283 * 44.1;
#X obj 864 -244 wrap;
#X floatatom 1420 168 5 0 0 0 - - -, f 5;
#X obj 913 -209 sel 1;
#X obj 1538 829 bng 15 250 50 0 empty empty empty 17 7 0 10 -262144
-1 -1;
#X obj 1388 649 f;
#X obj 126 -206 c_cpfade;
#X obj 217 -206 c_cpfade;
#X msg 297 -246 0;
#X msg 27 -282 1 \$1;
#X obj 27 -263 line;
#X msg 28 -223 0 \$1;
#X obj 1617 229 hsl 50 15 0 1 0 0 empty empty PVOC_stereo_wide -2 -8
0 10 -262144 -1 -1 3500 1;
#X msg 273 -100 1;
#X obj 273 -117 loadbang;
#X msg 268 -63 width \$1;
#X floatatom 54 -98 5 0 0 0 - - -, f 5;
#X obj 927 254 tgl 15 0 empty empty transpo_offset 17 7 0 10 -262144
-1 -1 0 1;
#X obj 626 703 spigot;
#X obj 699 621 loadbang;
#X msg 699 643 1;
#X obj 878 636 expr 1 -$f1;
#X obj 929 283 hsl 128 15 -4800 4800 0 0 empty empty target_transpo_offset
-2 -8 0 10 -262144 -1 -1 8000 1;
#X obj 902 674 spigot;
#X floatatom 1025 298 5 0 0 0 - - -, f 5;
#X msg 761 264 -149;
#X obj 626 301 hsl 128 15 0.001 10000 0 0 empty empty dly -2 -8 0 10
-262144 -1 -1 0 1;
#X obj 629 511 delay;
#X obj 499 396 / 1000;
#X msg 1357 597 100 \, \$1 \$2;
#X msg 989 266 0;
#X msg 1022 265 -149;
#X obj 1060 355 delay;
#X msg 1059 379 100;
#X obj 1044 422 bng 15 250 50 0 empty empty empty 17 7 0 10 -262144
-1 -1;
#X text 318 195 fade in;
#X obj 926 505 loadbang;
#X floatatom 721 316 5 0 0 0 - - -, f 5;
#X floatatom 1246 182 5 0 0 0 - - -, f 5;
#X obj 1172 262 / 1000;
#X text 681 328 3;
#X text 1183 325 4;
#X text 1453 307 5;
#X floatatom 1479 122 10 0 0 0 - speed-set-#1 -, f 10;
#X floatatom 1419 122 7 0 0 0 - location-set-#1 -, f 7;
#X text 1420 136 location;
#X text 1489 134 speed;
#X floatatom 1555 137 12 0 0 0 - transpo-set-#1 -, f 12;
#X text 1554 116 in cents;
#X text 1555 99 detune;
#X floatatom 1725 301 5 0 0 0 - window-size-#1 -, f 5;
#X obj 1724 222 vradio 15 1 0 5 empty empty empty 0 -8 0 10 -262144
-1 -1 4;
#X text 1739 222 512;
#X text 1739 236 1024;
#X text 1739 251 2048;
#X text 1739 266 4096;
#X text 1739 282 8192;
#X obj 1630 -510 sel 0 1 2 3 4;
#X text 1722 186 window size \,;
#X text 1722 201 samples;
#X msg 1769 -39 4;
#X obj 1613 196 tgl 15 0 empty empty wide_on_pvoc 17 7 0 10 -262144
-1 -1 1 1;
#X obj 1568 418 loadbang;
#X msg 1568 440 0;
#X obj 1635 612 spigot;
#X msg 1638 477 0 \, 1 \$1;
#X obj 1730 447 f;
#X obj 1648 509 line;
#X msg 1711 529 1 \, 0 \$1;
#X obj 1748 484 f;
#X floatatom 856 269 8 0 0 0 - - -, f 8;
#X obj 762 249 bng 15 250 50 0 empty empty -149 17 7 0 10 -262144 -1
-1;
#X msg 927 236 -149;
#X obj 927 237 bng 15 250 50 0 empty empty -149 17 7 0 10 -262144 -1
-1;
#X obj 1625 264 vsl 15 128 0.04 4 1 0 empty empty empty 0 -9 0 10 -262144
-1 -1 11477 1;
#X obj 302 -356 *~;
#X msg 1236 881 \$1 20;
#X obj 1215 913 line;
#X obj 269 -359 *~;
#X msg 1050 763 1;
#X obj 1042 727 loadbang;
#X floatatom 1623 247 5 0 0 0 - - -, f 5;
#X msg 544 615 \$1 \, \$2 \$3;
#X obj 538 588 pack f f f;
#X obj 1223 -610 loadbang;
#X msg 627 619 \$3 \, \$1 \$2;
#X obj 628 599 pack f f f;
#X obj 898 142 bng 15 250 50 0 empty empty nom_speed 17 7 0 10 -262144
-1 -1;
#X msg 905 177 100;
#X obj 1540 791 loadbang;
#X obj 1491 908 metro 2;
#X obj 1553 888 t b f;
#X obj 1725 336 vradio 15 1 0 4 empty empty SAMPLE_RATE 0 -8 0 10 -262144
-1 -1 3;
#X text 1740 335 44.1 kHz;
#X text 1740 366 88.2 kHz;
#X text 1740 350 48 kHz;
#X text 1740 381 96 kHz;
#X msg 1829 -75 0;
#X obj 1863 46 sel 0 1 2 3;
#X msg 1869 83 44.1;
#X msg 1870 105 48;
#X msg 1871 127 88.2;
#X msg 1870 152 96;
#X obj 1705 36 s sampleperms-\$1;
#X obj 437 -456 r sampleperms-\$1;
#X msg 430 -381 sr \$1;
#X obj 438 -410 * 1000;
#X obj 393 -456 t b f;
#X obj 598 -149 r sampleperms-\$1;
#X obj 598 -128 * 1000;
#X obj 598 -108 t b f;
#X obj 1017 -347 r sampleperms-\$1;
#X obj 1553 825 r sampleperms-\$1;
#X obj 1553 845 * 1000;
#X obj 1554 864 expr 1000/ $f1;
#X obj 1662 72 s sampleperms-\$2;
#X obj 850 -604 r sampleperms-\$1;
#X obj 391 -574 f \$1;
#X obj 471 -607 loadbang;
#X obj 227 343 bng 15 250 50 0 empty empty Load_nominal_audio_(load_pvoc_aswell)
17 7 0 10 -262144 -1 -1;
#X obj 288 -616 openpanel;
#X obj 226 365 bng 15 250 50 0 empty empty Load_pvoc_audio 17 7 0 10
-262144 -1 -1;
#X obj 79 69 s loadnomfile-\$1;
#X obj 206 412 s loadpvocfile-\$1;
#X obj 209 -638 r loadnomfile-\$1;
#X obj 574 -582 s read-sample-\$1;
#X obj 608 -634 r loadpvocfile-\$1;
#X obj 627 -612 openpanel;
#X obj 24 200 s play-\$1;
#X obj 10 265 s nominal_event-\$1;
#X obj 33 341 s stop-\$1;
#X obj 130 219 s pvoc_event-\$1;
#X obj 235 66 r play-\$1;
#X obj 454 60 r pvoc_event-\$1;
#X obj 1306 182 r nominal_event-\$1;
#X obj 467 485 r nominal_event-\$1;
#X obj 608 484 r pvoc_event-\$1;
#X obj 622 729 s transpo-\$1;
#X obj 901 728 s transpo-\$1;
#X obj 1331 696 s speed-set-\$1;
#X obj 1620 718 s autowide-\$1;
#X obj 1402 458 s pvoc_time_speed-\$1;
#X obj 1809 494 r pvoc_time_speed-\$1;
#X obj 1765 457 r nominal_event-\$1;
#X obj 1785 426 r time_speed-\$1;
#X obj 1662 424 r pvoc_event-\$1;
#X obj 1258 15 r nominal_event-\$1;
#X obj 1306 304 s nominal_xfade-\$1;
#X obj 1479 493 r timelinebang-\$1;
#X obj 413 304 s pvoc_xfade-\$1;
#X obj 247 271 s fadein-\$1;
#X obj 508 -68 s location-\$1;
#X obj 1101 -244 s location-\$1;
#X obj 1213 -244 s speed-\$1;
#X obj 1303 -241 s rewind-\$1;
#X obj 1391 -244 s auto-\$1;
#X obj 1540 -313 s transpo-\$1;
#X obj 1539 -244 s lock-\$1;
#X obj 1695 -198 s window-size-\$1;
#X obj 721 -153 s nominal-reset-\$1;
#X obj 508 -254 r nominal-location-\$1;
#X obj 505 -290 r sampsize-\$1;
#X obj 631 -359 r nominal_event-\$1;
#X obj 672 -411 r pvoc_event-\$1;
#X obj 25 -304 r pvoc_xfade-\$1;
#X obj 28 -241 r nominal_xfade-\$1;
#X obj 324 -79 r autowide-\$1;
#X obj 37 -575 r nominal_event-\$1;
#X obj 4 -594 r nominal-reset-\$1;
#X obj 27 -553 r play-\$1;
#X obj 284 -467 s sampsize-\$1;
#X obj 192 -576 r location-pvoc-\$1;
#X obj 701 -577 r sampsize-\$1;
#X obj 265 125 s timelinebang-\$1;
#X obj 435 -153 s pvoc_time-\$1;
#X obj 1009 -392 s speed-\$1;
#X obj 1078 -386 s transpo-\$1;
#X obj 912 -314 r sampsize-\$1;
#X obj 809 413 s time_speed-\$1;
#X obj 1279 432 r pvoc_event-\$1;
#X obj 623 -478 r stop-\$1;
#X obj 573 -554 insample \$1 \$2;
#X obj 394 -477 print;
#X obj 814 -562 t b f;
#X obj 76 -475 pack f f;
#X obj 75 -498 f \$1;
#X obj 138 -631 loadbang;
#X obj 134 -494 f \$2;
#X obj 143 -476 pack f f;
#N canvas 800 318 628 402 sample-nominal 0;
#N canvas 0 50 450 250 (subpatch) 0;
#X array samp-nominal-\$1 9.6e+006 float 2;
#X coords 0 1 9.6e+006 -1 200 140 1 0 0;
#X restore 28 -71 graph;
#N canvas 0 50 450 250 (subpatch) 0;
#X array samp-nominal-\$2 9.6e+006 float 2;
#X coords 0 1 9.6e+006 -1 200 140 1 0 0;
#X restore 232 -71 graph;
#X restore 393 -630 pd sample-nominal \$1 \$2;
#X msg 289 -529 read -resize -maxsize 1.44e+007 \$1 samp-nominal-\$2
samp-nominal-\$3;
#X obj 423 -576 f \$2;
#X obj 325 -549 pack s f f;
#X obj 876 -413 r location-pvoc-\$1;
#X obj 157 -338 s_playtable \$1;
#X obj 50 -339 s_playtable \$1;
#X obj 386 -263 r fadein-\$1;
#X msg 75 -449 samp-nominal-\$1 1 1 \$2;
#X msg 84 -429 samp-nominal-\$1 1 1 \$2;
#X obj 92 -521 t b f;
#X obj 759 -437 s location-set-\$1;
#X obj 203 -273 e_stereowidener \$1;
#X obj 780 -467 s location-set-\$2;
#X obj 910 753 s transpo-\$2;
#X obj 617 750 s transpo-\$2;
#X obj 1117 -221 s location-\$2;
#X obj 1229 -221 s speed-\$2;
#X obj 1319 -218 s rewind-\$2;
#X obj 1407 -221 s auto-\$2;
#X obj 1692 -175 s window-size-\$2;
#X obj 1347 722 s speed-set-\$2;
#X obj 247 -429 I07.phase.vocoder \$1;
#X obj 37 37 print;
#X floatatom 37 59 5 0 0 0 - - -, f 5;
#X obj 274 -408 I07.phase.vocoder \$2;
#X obj 254 -606 bng 15 250 50 0 empty empty empty 17 7 0 10 -262144
-1 -1;
#X obj 160 -614 s loadedfile-\$1;
#X obj 1553 -126 r loadedfile-\$1;
#X text 487 283 PVOC_XFADE;
#X text 391 283;
#X obj 175 -51 s~ \$1-tomaster;
#X obj 203 -29 s~ \$2-tomaster;
#X obj 32 94 r global_play;
#X obj -8 111 r global_pvoc_event;
#X obj -7 131 r global_nom_event;
#X obj 28 152 r global_stop;
#X obj 283 26 r global_timeline;
#X obj 319 801 r global_fadein;
#X obj 487 808 r global_pvocxfade_dly;
#X obj 464 833 r global_pvocxfade;
#X obj 650 835 r global_speed_dly;
#X obj 654 868 r global_transo_dly;
#X obj 801 830 r global_speed_target;
#X obj 810 856 r global_speed_time;
#X obj 976 831 r global_transo_target;
#X obj 989 857 r global_transo_time;
#X obj 1212 819 r global_nom_speed;
#X obj 1207 840 r global_nom_transpo;
#X obj 1354 816 r global_nom_xfade_dly;
#X obj 1367 839 r global_nom_xfade;
#X obj 1747 810 r global_wide_target;
#X obj 1736 839 r global_widemode;
#X connect 0 0 317 0;
#X connect 1 0 341 1;
#X connect 1 0 342 1;
#X connect 2 0 12 0;
#X connect 2 0 45 0;
#X connect 2 0 341 1;
#X connect 2 0 342 1;
#X connect 3 0 4 0;
#X connect 4 0 35 0;
#X connect 4 0 321 0;
#X connect 5 0 303 0;
#X connect 6 0 300 0;
#X connect 7 0 299 0;
#X connect 7 0 352 0;
#X connect 11 0 304 0;
#X connect 12 0 301 0;
#X connect 13 0 302 0;
#X connect 14 0 302 0;
#X connect 15 0 302 0;
#X connect 24 0 305 0;
#X connect 24 0 356 0;
#X connect 25 0 305 0;
#X connect 25 0 356 0;
#X connect 26 0 305 0;
#X connect 26 0 356 0;
#X connect 33 0 305 0;
#X connect 33 0 356 0;
#X connect 34 0 207 0;
#X connect 34 0 244 0;
#X connect 35 0 36 0;
#X connect 36 0 298 0;
#X connect 37 0 278 0;
#X connect 38 0 42 0;
#X connect 38 0 44 1;
#X connect 40 0 41 0;
#X connect 41 0 38 0;
#X connect 42 0 39 0;
#X connect 43 0 47 0;
#X connect 44 0 297 0;
#X connect 45 0 47 0;
#X connect 46 0 45 0;
#X connect 46 0 155 0;
#X connect 47 0 49 1;
#X connect 47 0 48 1;
#X connect 48 0 367 0;
#X connect 49 0 368 0;
#X connect 52 0 275 0;
#X connect 54 0 58 0;
#X connect 54 0 59 1;
#X connect 54 0 75 0;
#X connect 56 0 57 0;
#X connect 57 0 54 0;
#X connect 57 0 60 0;
#X connect 58 0 55 0;
#X connect 59 0 296 0;
#X connect 60 0 62 0;
#X connect 60 0 63 1;
#X connect 62 0 61 0;
#X connect 63 0 59 0;
#X connect 63 0 65 0;
#X connect 66 0 73 1;
#X connect 66 0 79 0;
#X connect 67 0 68 0;
#X connect 68 0 66 0;
#X connect 69 0 71 0;
#X connect 69 0 72 1;
#X connect 69 0 114 0;
#X connect 69 0 325 0;
#X connect 71 0 70 0;
#X connect 72 0 176 0;
#X connect 73 0 72 0;
#X connect 74 0 125 1;
#X connect 74 0 152 1;
#X connect 75 0 77 1;
#X connect 75 0 81 0;
#X connect 75 0 173 0;
#X connect 76 0 78 0;
#X connect 77 0 73 0;
#X connect 77 0 83 0;
#X connect 78 0 75 0;
#X connect 80 0 64 0;
#X connect 81 0 82 0;
#X connect 85 0 276 0;
#X connect 86 0 80 0;
#X connect 87 0 91 0;
#X connect 87 0 92 1;
#X connect 89 0 90 0;
#X connect 90 0 87 0;
#X connect 90 0 93 0;
#X connect 91 0 88 0;
#X connect 92 0 294 0;
#X connect 93 0 95 0;
#X connect 93 0 96 1;
#X connect 95 0 94 0;
#X connect 96 0 92 0;
#X connect 96 0 97 0;
#X connect 99 0 277 0;
#X connect 100 0 101 0;
#X connect 101 0 346 0;
#X connect 102 0 101 1;
#X connect 103 0 1 0;
#X connect 104 0 105 0;
#X connect 104 0 107 0;
#X connect 104 0 140 0;
#X connect 106 0 306 0;
#X connect 107 0 106 0;
#X connect 108 0 109 0;
#X connect 108 0 320 0;
#X connect 109 0 110 0;
#X connect 110 0 111 0;
#X connect 110 0 347 0;
#X connect 110 0 349 0;
#X connect 113 0 115 1;
#X connect 113 0 217 0;
#X connect 114 0 118 0;
#X connect 114 0 233 1;
#X connect 115 0 233 0;
#X connect 116 0 121 1;
#X connect 116 0 165 0;
#X connect 118 0 117 0;
#X connect 119 0 120 0;
#X connect 120 0 113 0;
#X connect 121 0 230 0;
#X connect 122 0 124 0;
#X connect 122 0 230 2;
#X connect 124 0 123 0;
#X connect 125 0 138 0;
#X connect 126 0 128 0;
#X connect 126 0 138 1;
#X connect 126 0 122 0;
#X connect 126 0 179 1;
#X connect 126 0 93 0;
#X connect 126 0 186 0;
#X connect 126 0 288 0;
#X connect 128 0 127 0;
#X connect 129 0 305 0;
#X connect 129 0 356 0;
#X connect 130 0 134 0;
#X connect 132 0 130 0;
#X connect 133 0 132 0;
#X connect 134 0 135 0;
#X connect 135 0 136 0;
#X connect 137 0 74 0;
#X connect 138 0 137 0;
#X connect 139 0 152 0;
#X connect 140 0 108 0;
#X connect 141 0 140 1;
#X connect 142 0 141 0;
#X connect 143 0 141 0;
#X connect 144 0 143 0;
#X connect 145 0 146 0;
#X connect 146 0 148 0;
#X connect 147 0 145 0;
#X connect 148 0 149 0;
#X connect 149 0 150 0;
#X connect 149 0 108 0;
#X connect 151 0 237 0;
#X connect 152 0 286 0;
#X connect 152 0 357 0;
#X connect 153 0 48 0;
#X connect 154 0 49 0;
#X connect 155 0 153 2;
#X connect 155 0 154 2;
#X connect 156 0 157 0;
#X connect 157 0 153 2;
#X connect 157 0 154 2;
#X connect 157 0 163 0;
#X connect 158 0 157 0;
#X connect 159 0 162 0;
#X connect 160 0 159 0;
#X connect 161 0 160 0;
#X connect 162 0 348 2;
#X connect 164 0 165 1;
#X connect 164 0 168 0;
#X connect 165 0 284 0;
#X connect 165 0 351 0;
#X connect 166 0 167 0;
#X connect 167 0 164 0;
#X connect 168 0 170 1;
#X connect 169 0 170 0;
#X connect 169 0 171 0;
#X connect 169 0 230 1;
#X connect 169 0 233 2;
#X connect 170 0 285 0;
#X connect 170 0 350 0;
#X connect 172 0 113 0;
#X connect 173 0 174 1;
#X connect 173 0 175 0;
#X connect 174 0 115 0;
#X connect 175 0 184 0;
#X connect 176 0 74 0;
#X connect 177 0 169 0;
#X connect 178 0 169 0;
#X connect 179 0 180 0;
#X connect 179 0 181 0;
#X connect 180 0 74 0;
#X connect 183 0 177 0;
#X connect 186 0 185 0;
#X connect 198 0 204 0;
#X connect 204 0 129 0;
#X connect 204 1 24 0;
#X connect 204 2 25 0;
#X connect 204 3 26 0;
#X connect 204 4 33 0;
#X connect 207 0 198 0;
#X connect 208 0 211 1;
#X connect 209 0 210 0;
#X connect 210 0 208 0;
#X connect 211 0 287 0;
#X connect 212 0 214 0;
#X connect 213 0 212 0;
#X connect 214 0 211 0;
#X connect 215 0 214 0;
#X connect 216 0 215 0;
#X connect 218 0 172 0;
#X connect 219 0 169 0;
#X connect 220 0 219 0;
#X connect 221 0 223 0;
#X connect 221 0 228 0;
#X connect 222 0 348 1;
#X connect 223 0 224 0;
#X connect 224 0 222 1;
#X connect 224 0 225 1;
#X connect 225 0 348 0;
#X connect 226 0 221 0;
#X connect 227 0 226 0;
#X connect 229 0 116 0;
#X connect 230 0 229 0;
#X connect 232 0 116 0;
#X connect 233 0 232 0;
#X connect 234 0 235 0;
#X connect 235 0 66 0;
#X connect 238 1 237 1;
#X connect 239 0 245 0;
#X connect 244 0 239 0;
#X connect 245 0 246 0;
#X connect 245 1 247 0;
#X connect 245 2 248 0;
#X connect 245 3 249 0;
#X connect 246 0 250 0;
#X connect 246 0 262 0;
#X connect 247 0 250 0;
#X connect 247 0 262 0;
#X connect 248 0 250 0;
#X connect 248 0 262 0;
#X connect 249 0 250 0;
#X connect 249 0 262 0;
#X connect 251 0 254 0;
#X connect 252 0 341 1;
#X connect 252 0 342 1;
#X connect 253 0 252 0;
#X connect 254 0 101 0;
#X connect 254 1 253 0;
#X connect 255 0 256 0;
#X connect 256 0 257 0;
#X connect 257 0 35 0;
#X connect 257 1 35 1;
#X connect 258 0 147 1;
#X connect 259 0 260 0;
#X connect 260 0 261 0;
#X connect 263 0 330 0;
#X connect 264 0 339 1;
#X connect 265 0 264 0;
#X connect 265 0 338 0;
#X connect 266 0 269 0;
#X connect 267 0 272 0;
#X connect 267 0 339 0;
#X connect 267 0 362 0;
#X connect 268 0 270 0;
#X connect 271 0 267 0;
#X connect 273 0 274 0;
#X connect 274 0 272 0;
#X connect 279 0 44 0;
#X connect 280 0 63 0;
#X connect 281 0 96 0;
#X connect 282 0 121 0;
#X connect 282 0 179 0;
#X connect 282 0 125 0;
#X connect 283 0 174 0;
#X connect 289 0 216 1;
#X connect 290 0 216 0;
#X connect 291 0 213 1;
#X connect 292 0 213 0;
#X connect 293 0 86 0;
#X connect 295 0 139 0;
#X connect 307 0 4 1;
#X connect 307 0 104 0;
#X connect 308 0 104 1;
#X connect 309 0 98 0;
#X connect 309 0 143 0;
#X connect 310 0 3 0;
#X connect 310 0 142 0;
#X connect 311 0 156 0;
#X connect 312 0 158 0;
#X connect 313 0 162 0;
#X connect 314 0 101 0;
#X connect 315 0 100 0;
#X connect 316 0 100 0;
#X connect 318 0 102 0;
#X connect 319 0 109 1;
#X connect 324 0 145 1;
#X connect 326 0 77 0;
#X connect 326 0 84 0;
#X connect 327 0 2 0;
#X connect 330 0 110 0;
#X connect 330 1 110 1;
#X connect 331 0 344 0;
#X connect 332 0 331 0;
#X connect 334 0 335 0;
#X connect 335 0 345 0;
#X connect 337 0 0 0;
#X connect 337 0 329 0;
#X connect 338 0 339 2;
#X connect 339 0 337 0;
#X connect 340 0 147 0;
#X connect 341 0 154 0;
#X connect 342 0 153 0;
#X connect 343 0 43 0;
#X connect 344 0 342 0;
#X connect 345 0 341 0;
#X connect 346 0 332 0;
#X connect 346 0 334 0;
#X connect 346 1 331 1;
#X connect 346 1 335 1;
#X connect 348 0 153 1;
#X connect 348 1 154 1;
#X connect 358 0 225 0;
#X connect 361 0 222 0;
#X connect 362 0 363 0;
#X connect 364 0 207 0;
#X connect 364 0 244 0;
#X connect 369 0 52 0;
#X connect 370 0 37 0;
#X connect 371 0 85 0;
#X connect 372 0 99 0;
#X connect 373 0 108 0;
#X connect 374 0 38 0;
#X connect 375 0 60 0;
#X connect 376 0 54 0;
#X connect 377 0 75 0;
#X connect 378 0 173 0;
#X connect 379 0 66 0;
#X connect 380 0 69 0;
#X connect 381 0 113 0;
#X connect 382 0 114 0;
#X connect 383 0 126 0;
#X connect 384 0 122 0;
#X connect 385 0 93 0;
#X connect 386 0 87 0;
#X connect 387 0 159 0;
#X connect 388 0 208 0;
#X coords 250 -1 1 1 1750 300 1 100 100;
