#N canvas 73 95 800 557 10;
#N canvas 0 50 450 300 (subpatch) 0;
#X array \$1-sample 599760 float 2;
#X coords 0 1 599760 -1 400 150 1 0 0;
#X restore 304 113 graph;
#X obj 28 184 unpack s f;
#X obj 28 294 soundfiler;
#X obj 28 210 t s b;
#X obj 90 139 44100;
#X obj 28 157 t a b;
#X obj 28 357 /;
#X obj 31 38 r read-sample-\$1;
#X obj 168 25 r sampleperms-\$1;
#X obj 146 119 * 1000;
#X floatatom 187 144 5 0 0 0 - - -, f 5;
#X obj 84 209 symbol \$1-sample;
#X obj 28 245 pack s s s;
#X obj 131 231 symbol \$2-sample;
#N canvas 0 50 450 300 (subpatch) 0;
#X array \$2-sample 599760 float 2;
#X coords 0 1 599760 -1 400 150 1 0 0;
#X restore 304 301 graph;
#X msg 28 270 read -resize -maxsize 1.44e+007 \$1 \$2 \$3;
#X obj 202 454 print;
#X obj 50 327 s \$1-samplength;
#X obj 28 404 s \$1-samp-msec;
#X floatatom 65 441 12 0 0 0 - - -, f 12;
#X obj 175 339 r sampleperms-\$1;
#X obj 164 371 t b f;
#X obj 118 179 s \$1-insamprate;
#X obj 33 431 s \$2-samp-msec;
#X obj 67 344 s \$2-samplength;
#X obj 175 163 s \$2-insamprate;
#X connect 1 0 3 0;
#X connect 2 0 6 0;
#X connect 2 0 17 0;
#X connect 2 0 24 0;
#X connect 3 0 12 0;
#X connect 3 1 11 0;
#X connect 3 1 13 0;
#X connect 4 0 22 0;
#X connect 4 0 25 0;
#X connect 5 0 1 0;
#X connect 5 1 4 0;
#X connect 6 0 18 0;
#X connect 6 0 19 0;
#X connect 6 0 23 0;
#X connect 7 0 5 0;
#X connect 8 0 9 0;
#X connect 9 0 4 1;
#X connect 9 0 10 0;
#X connect 11 0 12 1;
#X connect 12 0 15 0;
#X connect 13 0 12 2;
#X connect 15 0 2 0;
#X connect 15 0 16 0;
#X connect 20 0 21 0;
#X connect 21 0 6 0;
#X connect 21 1 6 1;
