#N canvas 636 100 944 982 10;
#X obj 47 36 inlet~;
#X obj 310 -1 inlet;
#X obj 312 22 - 0.5;
#X obj 313 41 * 2;
#X obj 313 137 moses 0;
#X obj 314 207 abs;
#X obj 312 416 outlet~;
#X obj 369 416 outlet~;
#X obj 314 111 line;
#X msg 424 143 0 20;
#X obj 248 182 line;
#X obj 423 163 line;
#X obj 313 294 line~;
#X msg 313 271 \$1 20;
#X obj 358 293 line~;
#X msg 358 270 \$1 20;
#X obj 47 150 delwrite~ PanPhaseL-\$1 50;
#X obj 57 171 delwrite~ PanPhaseR-\$1 50;
#X obj 313 322 delread4~ PanPhaseR-\$1;
#X obj 386 345 delread4~ PanPhaseL-\$1;
#X msg 247 160 0 20;
#X obj 450 5 inlet;
#X obj 104 35 inlet~;
#X obj 274 64 f;
#X obj 208 27 r pvoc_event;
#X obj 313 227 * 50;
#X obj 351 227 * 50;
#X msg 314 88 \$1 20;
#X connect 0 0 16 0;
#X connect 1 0 2 0;
#X connect 2 0 3 0;
#X connect 3 0 23 1;
#X connect 3 0 27 0;
#X connect 4 0 20 0;
#X connect 4 0 5 0;
#X connect 4 1 9 0;
#X connect 4 1 26 0;
#X connect 5 0 25 0;
#X connect 8 0 4 0;
#X connect 9 0 11 0;
#X connect 10 0 26 0;
#X connect 11 0 25 0;
#X connect 12 0 18 0;
#X connect 13 0 12 0;
#X connect 14 0 19 0;
#X connect 15 0 14 0;
#X connect 18 0 7 0;
#X connect 19 0 6 0;
#X connect 20 0 10 0;
#X connect 22 0 17 0;
#X connect 24 0 23 0;
#X connect 25 0 13 0;
#X connect 26 0 15 0;
#X connect 27 0 8 0;
