#N canvas 462 0 944 685 10;
#X obj 204 80 soundfiler;
#X msg 223 102 sr 44100;
#N canvas 0 0 944 982 sample-nominal 0;
#N canvas 0 50 450 250 (subpatch) 0;
#X array samp-nominal-1 3.528e+006 float 2;
#X coords 0 1 3.528e+006 -1 200 140 1 0 0;
#X restore -41 -120 graph;
#N canvas 0 50 450 250 (subpatch) 0;
#X array samp-nominal-2 3.528e+006 float 2;
#X coords 0 1 3.528e+006 -1 200 140 1 0 0;
#X restore 163 -120 graph;
#X restore 371 25 pd sample-nominal;
#X msg 204 54 read -resize POMMERAIE1.wav samp-nominal-1 samp-nominal-2
;
#X obj 207 441 spigot;
#X obj 162 183 tgl 15 0 empty empty empty 17 7 0 10 -262144 -1 -1 1
1;
#X msg 166 157 1;
#X obj 161 10 loadbang;
#X msg 154 370 bang;
#X obj 50 32 r play;
#X floatatom 292 110 12 0 0 0 - - -, f 12;
#X obj 126 604 dac~;
#X obj 292 135 / 44.1;
#X floatatom 459 228 12 0 0 0 - - -, f 12;
#X obj 123 407 s_playtable2;
#X obj 113 191 f;
#X obj 79 91 bng 15 250 50 0 empty empty empty 17 7 0 10 -262144 -1
-1;
#X obj 458 380 r nominal-location;
#X floatatom 452 433 12 0 0 0 - - -, f 12;
#X obj 453 402 / 44.1;
#X obj 293 301 print;
#X msg 119 255 samp-nominal 1 1 0 \$1;
#X connect 0 0 10 0;
#X connect 1 0 14 1;
#X connect 3 0 0 0;
#X connect 4 0 8 0;
#X connect 5 0 4 1;
#X connect 6 0 5 0;
#X connect 7 0 6 0;
#X connect 8 0 14 0;
#X connect 10 0 12 0;
#X connect 12 0 13 0;
#X connect 12 0 15 1;
#X connect 14 0 11 0;
#X connect 14 1 11 1;
#X connect 14 2 4 0;
#X connect 15 0 21 0;
#X connect 16 0 15 0;
#X connect 17 0 19 0;
#X connect 19 0 18 0;
#X connect 21 0 14 0;
#X connect 21 0 20 0;
